<svg xmlns="http://www.w3.org/2000/svg" viewBox="0 0 36 34"><defs><style>.a{fill:#5272b8;}.b{isolation:isolate;font-size:7px;font-family:BerlinSansFB-Reg, Berlin Sans FB;}.b,.c{fill:#fff;}.c{stroke:#fff;stroke-miterlimit:10;stroke-width:0.5px;}</style></defs><title>accounts</title><rect class="a" width="36" height="34" rx="5"/><text class="b" transform="translate(0.91 29.19)">ACCOUNTS</text><path class="c" d="M18.46,8.64A2.5,2.5,0,1,0,21,11.13,2.53,2.53,0,0,0,18.46,8.64Zm0,4.58a2.08,2.08,0,1,1,2.08-2.07A2.08,2.08,0,0,1,18.46,13.22Z"/><path class="c" d="M18.46,4.39a8.08,8.08,0,1,0,8.08,8.08A8.09,8.09,0,0,0,18.46,4.39ZM14.22,18.85h0a4.41,4.41,0,0,1,4.24-4.44,4.39,4.39,0,0,1,4.21,4.44h0A7.64,7.64,0,0,1,14.22,18.85Zm8.87-.3A4.81,4.81,0,0,0,18.46,14a4.82,4.82,0,0,0-4.64,4.6,7.68,7.68,0,1,1,10.75-1.5A7.92,7.92,0,0,1,23.09,18.55Z"/></svg>