<svg xmlns="http://www.w3.org/2000/svg" viewBox="0 0 36 34"><defs><style>.a{fill:#3fc1ff;}.b{isolation:isolate;font-size:9px;font-family:BerlinSansFB-Reg, Berlin Sans FB;}.b,.c{fill:#fff;}</style></defs><title>admin</title><rect class="a" width="36" height="34" rx="5"/><text class="b" transform="translate(4.27 29.66)">ADMIN</text><path class="c" d="M16.56,9.67a3.22,3.22,0,1,1,3.21-3.23h0A3.23,3.23,0,0,1,16.56,9.67Zm0-5.8a2.58,2.58,0,1,0,2.58,2.58h0A2.59,2.59,0,0,0,16.56,3.87Z"/><path class="c" d="M26.67,15.43a.2.2,0,0,1-.2-.2.2.2,0,0,1,.06-.14.84.84,0,0,0,0-1.19h0l-.46-.46a.84.84,0,0,0-1.19,0h0a.19.19,0,0,1-.28,0,.2.2,0,0,1-.06-.14.84.84,0,0,0-.83-.84h-.66a.75.75,0,0,0-.33.07,3.71,3.71,0,0,0-3.19-1.84H13.59a3.7,3.7,0,0,0-3.65,3L9.42,16.5a.32.32,0,0,0,.27.37h5.38l-.09.92a.31.31,0,0,0,.27.35h2.57a.32.32,0,0,0,.32-.32v0l-.1-.92h1.2a.85.85,0,0,0,.84.84h0a.2.2,0,0,1,.2.2.2.2,0,0,1-.06.14.82.82,0,0,0,0,1.17h0l.47.47a.82.82,0,0,0,1.17,0h0a.19.19,0,0,1,.28,0,.2.2,0,0,1,.06.14.86.86,0,0,0,.84.84h.66a.84.84,0,0,0,.83-.84.2.2,0,0,1,.2-.2.2.2,0,0,1,.14.06.84.84,0,0,0,1.19,0h0l.46-.47a.82.82,0,0,0,0-1.17h0a.19.19,0,0,1,0-.28.2.2,0,0,1,.14-.06.83.83,0,0,0,.84-.82v-.68A.83.83,0,0,0,26.67,15.43Zm-11.53.85h-5l.44-2.43a3.08,3.08,0,0,1,3-2.52h1.66l-.51,1.38a.28.28,0,0,0,0,.25l.6,1.22Zm2.33,1.27H15.64l.35-3.4A.26.26,0,0,0,16,14l-.58-1.18L16,11.35h1.25l.55,1.47L17.15,14a.25.25,0,0,0,0,.17ZM18,16.28l-.22-2.1.6-1.22a.28.28,0,0,0,0-.25l-.52-1.38h1.67A3.05,3.05,0,0,1,22.26,13a.93.93,0,0,0-.05.29.2.2,0,0,1-.2.2.2.2,0,0,1-.14-.06.82.82,0,0,0-1.17,0h0l-.47.46a.84.84,0,0,0,0,1.19h0a.19.19,0,0,1,0,.28.2.2,0,0,1-.14.06.84.84,0,0,0-.84.83h0Zm8.9.64a.19.19,0,0,1-.18.2h0a.84.84,0,0,0-.84.84.82.82,0,0,0,.24.59.21.21,0,0,1,0,.29l-.46.46a.21.21,0,0,1-.29,0,.82.82,0,0,0-1.17,0,.86.86,0,0,0-.25.6.2.2,0,0,1-.2.2h-.66a.2.2,0,0,1-.2-.2h0a.83.83,0,0,0-.85-.83.84.84,0,0,0-.58.24.19.19,0,0,1-.27,0h0l-.47-.46a.21.21,0,0,1,0-.29.82.82,0,0,0,0-1.17.86.86,0,0,0-.6-.25.2.2,0,0,1-.2-.2h0v-.66a.19.19,0,0,1,.19-.19h0a.83.83,0,0,0,.83-.85.84.84,0,0,0-.24-.58.21.21,0,0,1,0-.29l.47-.46a.19.19,0,0,1,.27,0h0a.84.84,0,0,0,1.19,0,.83.83,0,0,0,.24-.58.2.2,0,0,1,.2-.2h.66a.2.2,0,0,1,.2.2h0a.83.83,0,0,0,1.42.59.21.21,0,0,1,.29,0l.46.46a.21.21,0,0,1,0,.29.82.82,0,0,0,0,1.17.86.86,0,0,0,.6.25.2.2,0,0,1,.21.19h0Z"/><path class="c" d="M23.38,14.32a2.28,2.28,0,1,0,2.27,2.29v0A2.29,2.29,0,0,0,23.38,14.32Zm0,3.83a1.56,1.56,0,1,1,1.55-1.57h0A1.56,1.56,0,0,1,23.38,18.15Z"/></svg>