<svg xmlns="http://www.w3.org/2000/svg" viewBox="0 0 36 34"><defs><style>.a{fill:#e75339;}.b{isolation:isolate;font-size:7px;font-family:BerlinSansFB-Reg, Berlin Sans FB;}.b,.c{fill:#fff;}</style></defs><title>clientnet</title><rect class="a" width="36" height="34" rx="5"/><text class="b" transform="translate(0 29.4)">CLIENT NET</text><path class="c" d="M13.38,5.39a.3.3,0,0,0-.26.34l.22,1.1h-.83a.31.31,0,0,0-.26.34l.22,1.11h-.83a.29.29,0,0,0-.25.33l1.09,6.32h-.84a.3.3,0,0,0-.24.37l1.15,3.76a.3.3,0,0,0,.28.21H24.11a.29.29,0,0,0,.27-.21l1.16-3.76a.3.3,0,0,0-.28-.37h-.81l1.1-6.32a.3.3,0,0,0-.29-.33h-.8l.22-1.11a.3.3,0,0,0-.28-.34h-.81l.22-1.1a.29.29,0,0,0-.28-.34Zm-.49,2H24l-.17.87H13.07Zm.29,2.6H23.76L23,14.06H21.51v-.29H19.19v.29h-.72v-.44a.47.47,0,0,0-.24-.35,5,5,0,0,0-.78-.3.59.59,0,0,1,.12-.29,1.72,1.72,0,0,0,.32-.94,1.56,1.56,0,0,0-.36-1,1.27,1.27,0,0,0-.94-.4,1.25,1.25,0,0,0-.94.4,1.51,1.51,0,0,0-.36,1,1.73,1.73,0,0,0,.31.94.63.63,0,0,1,.13.29,4.51,4.51,0,0,0-.78.3.48.48,0,0,0-.24.35v.44h-.78Zm6,.72v.58h2.75v-.58Zm-2.6.15a.7.7,0,0,1,.51.21,1,1,0,0,1,.21.65,1,1,0,0,1-.23.62,1.21,1.21,0,0,0-.2.9.33.33,0,0,0,.19.21,6.58,6.58,0,0,1,.82.28v.31h-2.6v-.31a5.19,5.19,0,0,1,.81-.28.33.33,0,0,0,.19-.21,1.16,1.16,0,0,0-.2-.9,1,1,0,0,1-.22-.62.92.92,0,0,1,.21-.65A.67.67,0,0,1,16.59,10.88Zm2.6.86v.58h2.6v-.58Zm0,1v.58h2.46v-.58Zm-7.13,2.75H24.87l-1,3.18H13Z"/></svg>