<svg xmlns="http://www.w3.org/2000/svg" viewBox="0 0 36 34"><defs><style>.a{fill:#45aa4a;}.b{isolation:isolate;font-size:6px;font-family:BerlinSansFB-Reg, Berlin Sans FB;}.b,.c{fill:#fff;}.c{fill-rule:evenodd;}</style></defs><title>complaince</title><rect class="a" width="36" height="34" rx="5"/><text class="b" transform="translate(0 29.4)">COMPLIANCE</text><path class="c" d="M12.51,14.29l1.74-5.62a.92.92,0,0,1,1-1.43l3.53,1.08a.94.94,0,0,1,0,1.79L18,12.5l11.53,3.22a.77.77,0,0,1-.43,1.48L17.78,13.37,17,15.68a.93.93,0,0,1-1,1.44L12.51,16A.91.91,0,0,1,12.51,14.29Z"/><path class="c" d="M9,18.55H20.26a.19.19,0,0,1,.17.18v.17H8.81v-.17A.19.19,0,0,1,9,18.55Z"/><path class="c" d="M9.59,18H19.65a.19.19,0,0,1,.17.18v.17H9.42v-.17A.18.18,0,0,1,9.59,18Z"/></svg>