<svg xmlns="http://www.w3.org/2000/svg" viewBox="0 0 36 34"><defs><style>.a{fill:#de3a6c;}.b{isolation:isolate;font-size:9px;font-family:BerlinSansFB-Reg, Berlin Sans FB;}.b,.d{fill:#fff;}.c{fill:none;}</style></defs><title>crd</title><rect class="a" width="36" height="34" rx="5"/><text class="b" transform="translate(9.53 29.79)">CRD</text><path class="c" d="M21.91,6.31H13.28a.17.17,0,0,0-.16.15V18a.17.17,0,0,0,.16.15h8.63a.17.17,0,0,0,.16-.15V6.46A.17.17,0,0,0,21.91,6.31ZM16,10.3a.77.77,0,0,1,.28-.19,2.9,2.9,0,0,0,.65-.28L17,9.74h0V9.62h0a.17.17,0,0,0,0-.1h0a1.22,1.22,0,0,1-.18-.36.23.23,0,0,1,0-.16s-.05-.17,0-.23a1,1,0,0,1-.05-.45s.11-.6.62-.69a1.06,1.06,0,0,1,.7.07.6.6,0,0,1,.36.37.91.91,0,0,1,0,.65V9a.66.66,0,0,1-.11.24,1.06,1.06,0,0,1-.18.33h0v.14h0a.7.7,0,0,0,.33.2s.62.2.73.43a1,1,0,0,1,.26.94s0,.06-.12.13a5.35,5.35,0,0,1-1.86.28,5.47,5.47,0,0,1-1.75-.32s-.09,0-.1-.25A2.12,2.12,0,0,1,16,10.3Zm4.68,6.51H14.5a.29.29,0,0,1-.3-.28v0a.29.29,0,0,1,.29-.31h6.19a.31.31,0,0,1,.31.31.29.29,0,0,1-.3.3Zm0-1.64H14.5a.31.31,0,1,1,0-.62h6.18a.31.31,0,0,1,0,.62Zm0-1.65H14.5a.29.29,0,0,1-.3-.28v0a.29.29,0,0,1,.29-.31h6.19a.31.31,0,0,1,.31.31.29.29,0,0,1-.3.3Z"/><path class="d" d="M21.91,5.79H13.28a.67.67,0,0,0-.67.67h0V18a.67.67,0,0,0,.67.67h8.63a.67.67,0,0,0,.67-.67h0V6.46a.67.67,0,0,0-.67-.67ZM22.07,18a.17.17,0,0,1-.16.15H13.28a.17.17,0,0,1-.16-.15V6.46a.17.17,0,0,1,.16-.15h8.63a.17.17,0,0,1,.16.15Z"/><path class="d" d="M20.68,12.91H14.5a.29.29,0,0,0-.3.3h0a.29.29,0,0,0,.28.3h6.2a.29.29,0,0,0,.31-.29h0A.31.31,0,0,0,20.68,12.91Z"/><path class="d" d="M20.68,14.55H14.5a.31.31,0,1,0,0,.62h6.18a.31.31,0,0,0,0-.62Z"/><path class="d" d="M20.68,16.2H14.5a.29.29,0,0,0-.3.3h0a.29.29,0,0,0,.28.3h6.2a.29.29,0,0,0,.31-.29h0A.31.31,0,0,0,20.68,16.2Z"/><path class="d" d="M15.77,11.42a5.47,5.47,0,0,0,1.75.32,5.35,5.35,0,0,0,1.86-.28c.12-.07.12-.13.12-.13a1,1,0,0,0-.26-.94c-.1-.23-.73-.43-.73-.43-.24-.08-.31-.16-.33-.2h0V9.54h0a1.06,1.06,0,0,0,.18-.33A.83.83,0,0,0,18.42,9V8.76a.91.91,0,0,0,0-.65A.59.59,0,0,0,18,7.72a1.06,1.06,0,0,0-.7-.07c-.51.09-.62.69-.62.69a1,1,0,0,0,.05.45V9a.22.22,0,0,0,.08.15,1.22,1.22,0,0,0,.18.36h0v.1h0v.12h0l-.07.09a2.9,2.9,0,0,1-.65.28.77.77,0,0,0-.28.19,2.1,2.1,0,0,0-.33.87C15.68,11.39,15.77,11.42,15.77,11.42Z"/></svg>