<svg xmlns="http://www.w3.org/2000/svg" viewBox="0 0 36 34"><defs><style>.a{fill:#a82aff;}.b{isolation:isolate;font-size:6px;font-family:BerlinSansFB-Reg, Berlin Sans FB;}.b,.c{fill:#fff;}</style></defs><title>depository</title><rect class="a" width="36" height="34" rx="5"/><text class="b" transform="translate(0.89 29.28)">DEPOSITORY</text><path class="c" d="M10.93,18.68H24.22a1.09,1.09,0,0,0,1.07-1.08V9.42a1.08,1.08,0,0,0-1.07-1.07H20.08V7.46a1.7,1.7,0,0,0-1.7-1.7H16.8a1.7,1.7,0,0,0-1.7,1.7v.89H10.93A1.07,1.07,0,0,0,9.86,9.42h0v8.21A1.07,1.07,0,0,0,10.93,18.68Zm5-11.19a.85.85,0,0,1,.84-.84h1.58a.85.85,0,0,1,.84.84h0v.88H15.94Zm-.29,4.45a1.94,1.94,0,1,1,3.13,1.91L19,16a.65.65,0,0,1-.15.48.62.62,0,0,1-.46.21H16.76a.62.62,0,0,1-.61-.69l.23-2.16a2,2,0,0,1-.73-1.9Z"/><path class="c" d="M18.38,7H16.8a.42.42,0,0,0-.42.42h0v.47h2.44V7.46A.45.45,0,0,0,18.38,7Z"/><path class="c" d="M16.7,13.57l.1.07-.27,2.41a.49.49,0,0,0,0,.17.2.2,0,0,0,.15.06h1.66c.06,0,.13,0,.15-.06a.25.25,0,0,0,0-.17l-.27-2.41.1-.07a1.55,1.55,0,0,0,.15-2.43,1.32,1.32,0,0,0-1-.38h-.19A1.56,1.56,0,0,0,16.05,12,1.54,1.54,0,0,0,16.7,13.57Z"/></svg>