<svg xmlns="http://www.w3.org/2000/svg" viewBox="0 0 36.28 34"><defs><style>.a{fill:#ff753f;}.b{isolation:isolate;font-size:7px;font-family:BerlinSansFB-Reg, Berlin Sans FB;}.b,.c{fill:#fff;}</style></defs><title>insurance</title><rect class="a" x="0.23" width="36" height="34" rx="5"/><text class="b" transform="translate(0 29.34)">INSURANCE</text><path class="c" d="M22.67,16.18a1,1,0,0,0-.34.06l-2.81.86a1.13,1.13,0,0,1-1.14.67c-.68-.14-2.06-.56-2.34-.65h0a.31.31,0,0,1-.12-.05.17.17,0,0,1,.1-.31h0l.17.06h0l2,.6h.05l.22,0a.46.46,0,0,0,.5-.33A.3.3,0,0,0,19,17h0a.47.47,0,0,0-.33-.44c-3.06-1.21-3.17-1.27-3.67-1.32-.25,0-.67,0-.92,0h-.75v3a6,6,0,0,1,.9,0,7.87,7.87,0,0,1,1.86.69c1.53.74,1.81.61,3.75-.47a20.81,20.81,0,0,1,2.95-1.32.64.64,0,0,0,.38-.5A.47.47,0,0,0,22.67,16.18Z" transform="translate(0.23)"/><path class="c" d="M13,14.88V18.4a.22.22,0,0,1-.21.22H12V19a.21.21,0,0,1-.21.21H10.09v-5h1.72a.21.21,0,0,1,.21.21v.32h.76A.22.22,0,0,1,13,14.88Z" transform="translate(0.23)"/><path class="c" d="M14,7.47a1,1,0,0,0,.34-.06l2.8-.85a1.15,1.15,0,0,1,1.15-.68c.67.14,2.06.56,2.33.65h0l.12,0a.17.17,0,0,1,.07.14.17.17,0,0,1-.18.17h0l-.17-.05h0l-2-.59-.05,0h0l-.23-.05a.48.48,0,0,0-.5.34.51.51,0,0,0,0,.13h0a.48.48,0,0,0,.33.43C21,8.3,21.12,8.36,21.63,8.41c.25,0,.67,0,.91,0h.76v-3a4.83,4.83,0,0,1-.9,0,7.63,7.63,0,0,1-1.87-.69C19,4,18.73,4.11,16.79,5.2a20.85,20.85,0,0,1-3,1.31.63.63,0,0,0-.37.5A.46.46,0,0,0,14,7.47Z" transform="translate(0.23)"/><path class="c" d="M26.56,4.47V9.53H24.83a.22.22,0,0,1-.22-.22V9h-.76a.21.21,0,0,1-.21-.21V5.25A.21.21,0,0,1,23.85,5h.76V4.68a.22.22,0,0,1,.22-.21Z" transform="translate(0.23)"/><path class="c" d="M22.45,11.62,18.38,8.86h-.23l-4.08,2.76a.21.21,0,0,0-.06.3.22.22,0,0,0,.18.1.23.23,0,0,0,.11,0l4-2.69,4,2.69a.2.2,0,0,0,.11,0,.22.22,0,0,0,.11-.4Z" transform="translate(0.23)"/><path class="c" d="M19.16,12.08H17.37a.33.33,0,0,0-.31.3v1.75a.34.34,0,0,0,.33.37h1.74a.34.34,0,0,0,.34-.33V12.42A.34.34,0,0,0,19.16,12.08ZM18.51,14H18l.1-.74A.29.29,0,0,1,18,13a.28.28,0,0,1,.28-.28.27.27,0,0,1,.28.28.28.28,0,0,1-.13.24Zm-.73-2.42a.49.49,0,1,1,1,0V12h.39v-.41a.88.88,0,1,0-1.75,0V12h.39Z" transform="translate(0.23)"/></svg>