<svg xmlns="http://www.w3.org/2000/svg" viewBox="0 0 36 34"><defs><style>.a{fill:#30bf00;}.b{isolation:isolate;font-size:6px;font-family:BerlinSansFB-Reg, Berlin Sans FB;}.b,.c{fill:#fff;}</style></defs><title>marketting</title><rect class="a" width="36" height="34" rx="5"/><text class="b" transform="translate(0.66 29.02)">MARKETTING</text><rect class="c" x="15.31" y="13.79" width="0.42" height="2.33"/><path class="c" d="M14.44,13V11.89a7.83,7.83,0,0,1,.41-2.84,2.43,2.43,0,0,1,.5-.83,1.45,1.45,0,0,0-.26-.17,1,1,0,0,0-.5-.05H12.33a1.31,1.31,0,0,0-.47.12A2,2,0,0,0,11,9.17a7.61,7.61,0,0,0-.4,2.76V13a.45.45,0,0,0,.45.43h0a.44.44,0,0,0,.43-.45V11.93a6.13,6.13,0,0,1,.4-2.58V18a.71.71,0,1,0,1.42,0V12.78h.27V18A.72.72,0,1,0,15,18V13.68A.68.68,0,0,1,14.44,13Zm-1.2-4.6h.44l.11.43h0a.47.47,0,0,1-.31.12.51.51,0,0,1-.31-.11h0Zm.22,3.7-.54-.69.31-2.31h.23a.45.45,0,0,0,.23,0L14,11.45Z"/><circle class="c" cx="13.46" cy="6.35" r="1.29"/><path class="c" d="M24.12,13.42a.47.47,0,0,0,.27-.39v-1.1a6.08,6.08,0,0,0-.66-3.27,1.59,1.59,0,0,0-.61-.57A1.12,1.12,0,0,0,22.68,8H20.42a1.31,1.31,0,0,0-.47.12,1.38,1.38,0,0,0-.25.17,1.86,1.86,0,0,1,.21.28,6.33,6.33,0,0,1,.7,3.39v1.11a.69.69,0,0,1-.26.5h.49v2.79H20V18a.71.71,0,0,0,1.42,0V12.78h.26V18a.71.71,0,0,0,1.42,0V9.36c0,.07.07.15.11.24a7.35,7.35,0,0,1,.29,2.33V13a.46.46,0,0,0,.35.47v.34H23.4v2.33h1.21V13.79h-.49Zm-2.79-5h.44l.11.43h0a.47.47,0,0,1-.31.12.51.51,0,0,1-.31-.11h0Zm.22,3.7L21,11.45l.31-2.31a.45.45,0,0,0,.23,0h0a.45.45,0,0,0,.23,0l.32,2.31Z"/><circle class="c" cx="21.55" cy="6.35" r="1.29"/><path class="c" d="M20.57,16.12V13.79h-.49v-.37a.46.46,0,0,0,.26-.39v-1.1a6.08,6.08,0,0,0-.66-3.27,1.67,1.67,0,0,0-.61-.57A1.07,1.07,0,0,0,18.64,8H16.37a1.21,1.21,0,0,0-.46.12A2,2,0,0,0,15,9.17a7.6,7.6,0,0,0-.39,2.76V13a.47.47,0,0,0,.46.43h0A.46.46,0,0,0,15.5,13V11.93A5.86,5.86,0,0,1,16,9.35V18a.71.71,0,1,0,1.41.17.49.49,0,0,0,0-.17V12.78h.27V18a.71.71,0,0,0,1.42,0V9.36c0,.07.07.15.1.24a7,7,0,0,1,.3,2.33V13a.45.45,0,0,0,.34.47v.34h-.42v2.33ZM17.29,8.44h.43l.11.43h0a.47.47,0,0,1-.31.12.51.51,0,0,1-.31-.11h0Zm.22,3.7L17,11.45l.32-2.31a.45.45,0,0,0,.23,0h.23l.31,2.31Z"/><circle class="c" cx="17.51" cy="6.35" r="1.29"/></svg>