<svg xmlns="http://www.w3.org/2000/svg" xmlns:xlink="http://www.w3.org/1999/xlink" width="36.1" height="34.04" viewBox="0 0 36.1 34.04"><defs><style>.a{fill:url(#a);}.b,.c{fill:#fff;}.b{stroke:#fff;stroke-linejoin:round;stroke-width:0.5px;}.c{font-size:9px;font-family:BerlinSansFB-Reg, Berlin Sans FB;}</style><radialGradient id="a" cx="18.05" cy="17.02" r="18.601" gradientTransform="translate(1.03 0.971) scale(0.943 0.943)" gradientUnits="userSpaceOnUse"><stop offset="0" stop-color="#ff8c00"/><stop offset="1" stop-color="#ff8c00"/></radialGradient></defs><rect class="a" width="36.1" height="34.04" rx="5"/><path class="b" d="M19.708,7.954a2.125,2.125,0,0,0-2.125,2.125,1.941,1.941,0,0,0,.078.538l-1.7.779L13.269,6.75a2.125,2.125,0,1,0-3-.29,2.678,2.678,0,0,0,.283.283L7.815,11.432l-1.65-.786a2.2,2.2,0,0,0,.085-.567A2.125,2.125,0,1,0,4.125,12.2a1.735,1.735,0,0,0,.269,0l1.856,6.07v2.784a.354.354,0,0,0,.354.354H17.229a.354.354,0,0,0,.354-.354h0V18.282L19.439,12.2a1.736,1.736,0,0,0,.269,0,2.125,2.125,0,0,0,0-4.25ZM11.916,3.7a1.417,1.417,0,0,1,.708,2.635h0A1.414,1.414,0,1,1,11.916,3.7ZM2.708,10.079A1.417,1.417,0,1,1,4.125,11.5,1.417,1.417,0,0,1,2.708,10.079ZM16.875,20.7H6.958V18.579h9.916Zm.092-2.833H6.866l-1.792-5.9a2.125,2.125,0,0,0,.793-.708l1.941.942a.361.361,0,0,0,.46-.142l2.9-4.958a2,2,0,0,0,1.487,0l2.833,4.958a.361.361,0,0,0,.453.149l1.99-.907a2.125,2.125,0,0,0,.807.708ZM19.708,11.5a1.417,1.417,0,1,1,1.417-1.417A1.417,1.417,0,0,1,19.708,11.5Z" transform="translate(6.134 0.264)"/><text class="c" transform="translate(2.05 30.19)"><tspan x="0" y="0">MASTER</tspan></text></svg>