<svg xmlns="http://www.w3.org/2000/svg" viewBox="0 0 36 34"><defs><style>.a{fill:#ff5fa2;}.b{isolation:isolate;font-size:9px;font-family:BerlinSansFB-Reg, Berlin Sans FB;}.b,.c{fill:#fff;}</style></defs><title>mf</title><rect class="a" width="36" height="34" rx="5"/><text class="b" transform="translate(12.35 29.98)">MF</text><path class="c" d="M19,12.52h.27a2.67,2.67,0,0,0,2.66-2.67.27.27,0,0,0-.26-.27h-.54A2.69,2.69,0,0,0,19,10.65V9.19l1.6-1.14a2.7,2.7,0,1,0-.18-.53l-1.68,1.2L17.08,7.53a2.7,2.7,0,1,0-.19.53l1.6,1.14v1.45a2.66,2.66,0,0,0-2.13-1.07h-.54a.27.27,0,0,0-.27.27h0a2.67,2.67,0,0,0,2.66,2.67h.27v.53H19Zm4-7.73a2.13,2.13,0,1,1-2.13,2.13A2.13,2.13,0,0,1,23,4.79ZM14.48,9.05a2.13,2.13,0,1,1,2.13-2.13,2.13,2.13,0,0,1-2.13,2.13Zm6.66,1.07h.25A2.13,2.13,0,0,1,19.28,12H19A2.13,2.13,0,0,1,21.14,10.12ZM18.21,12a2.13,2.13,0,0,1-2.11-1.86h.25A2.13,2.13,0,0,1,18.46,12Z"/><path class="c" d="M12.09,18.91h2.13a.27.27,0,0,0,.26-.27v-.1l2,.83a4.62,4.62,0,0,0,3.39,0L24,17.84a.93.93,0,0,0,.53-.52A1,1,0,0,0,24,16h0a.89.89,0,0,0-.75,0l-.82.34a2.47,2.47,0,0,0,.05-.38c0-1.62-1.68-2.93-3.73-2.93a3.79,3.79,0,0,0-3.47,1.86h-.8a.26.26,0,0,0-.26-.26H12.09a.27.27,0,0,0-.27.26H10.75v.54h1.07v2.66H10.75v.53h1.07a.27.27,0,0,0,.25.29Zm6.66-5.33c1.76,0,3.19,1.07,3.19,2.4a1.73,1.73,0,0,1-.12.64l-.29.12v-.1a.93.93,0,0,0-.92-.93H18.54a1.35,1.35,0,0,1-.59-.14A6.14,6.14,0,0,0,15.86,15,3.43,3.43,0,0,1,18.75,13.58Zm-3.59,1.87a5.62,5.62,0,0,1,2.54.6,1.88,1.88,0,0,0,.84.19h2.07a.4.4,0,0,1,.44.36h0a.39.39,0,0,1-.33.44H17.41v.54h3.22a1.8,1.8,0,0,0,.61-.13l2.23-.94a.4.4,0,0,1,.34,0,.49.49,0,0,1,.24.25.43.43,0,0,1,0,.35.45.45,0,0,1-.25.24l-4.13,1.56a4.09,4.09,0,0,1-3,0L14.48,18V15.45Zm-2.81-.27H14v3.2H12.4Z"/><path class="c" d="M22.05,6.81h.28a1,1,0,0,0,.42-.09.49.49,0,0,0,.31-.33V6.27H21.91A1,1,0,0,0,22.08,6H23a.71.71,0,0,0-.1-.14.85.85,0,0,0-.34-.14H21.9l.19-.27h2l-.17.26h-.56a.69.69,0,0,1,.14.3h.56l-.17.25h-.36v.08A.83.83,0,0,1,23,6.9a1.46,1.46,0,0,1-.5.12h0l.9,1.07.17.2a.14.14,0,0,1,0,.09h-.44l-.84-1L22,7.05V6.82Z"/><path class="c" d="M13.54,6.81h.28a1,1,0,0,0,.42-.09.49.49,0,0,0,.31-.33V6.27H13.4A1,1,0,0,0,13.57,6h.89a.71.71,0,0,0-.1-.14A.85.85,0,0,0,14,5.72h-.66l.19-.27h2l-.17.26h-.56A.68.68,0,0,1,15,6h.56l-.17.25H15v.08a.82.82,0,0,1-.48.56A1.35,1.35,0,0,1,14,7h0l.9,1.07.16.2a.14.14,0,0,1,0,.09h-.45l-.83-1L13.51,7h0V6.82Z"/></svg>