<svg xmlns="http://www.w3.org/2000/svg" viewBox="0 0 36 34"><defs><style>.a{fill:#e61c60;}.b{isolation:isolate;font-size:9px;font-family:BerlinSansFB-Reg, Berlin Sans FB;}.b,.c{fill:#fff;}</style></defs><title>mis</title><rect class="a" width="36" height="34" rx="5"/><text class="b" transform="translate(11.2 29.34)">MIS</text><path class="c" d="M10.85,19.19H24.68V5.2H10.85ZM11.2,5.55H24.32V18.83H11.2Z"/><path class="c" d="M17,8.52h-.89v2.84H17ZM16.64,11h-.18V8.87h.18Z"/><path class="c" d="M15.75,9.71h-.88v1.65h.88ZM15.4,11h-.18v-.93h.18Z"/><path class="c" d="M14.53,6.61h-.89v4.75h.89ZM14.17,11H14V7h.18Z"/><path class="c" d="M13.28,7.6H12.4v3.76h.88ZM12.93,11h-.18V8h.18Z"/><path class="c" d="M17.49,11.73H12V6.09a.18.18,0,0,0-.36,0h0v6H17.5a.18.18,0,0,0,.18-.18h0A.19.19,0,0,0,17.49,11.73Z"/><path class="c" d="M23,14.69a.28.28,0,0,0,0,.18l-.78.8a.39.39,0,0,0-.21-.06.43.43,0,0,0-.25.07L21.11,15v-.06a.44.44,0,0,0-.5-.37.45.45,0,0,0-.37.37V15l-.64.57h-.1a.42.42,0,0,0-.43.41h0a.45.45,0,0,0,.45.47A.46.46,0,0,0,20,16a.33.33,0,0,0-.06-.19l.56-.49a.45.45,0,0,0,.45,0l.73.65h0a.44.44,0,0,0,.5.37.45.45,0,0,0,.37-.37V15.9L23.4,15h.11a.43.43,0,0,0,.44-.41.43.43,0,0,0-.44-.42h0a.46.46,0,0,0-.51.41Z"/><path class="c" d="M23.73,18.1H18.82v-5a.18.18,0,0,0-.36,0h0v5.4h5.27a.18.18,0,0,0,.18-.18h0a.19.19,0,0,0-.16-.22Z"/><path class="c" d="M18.65,9.22A2.38,2.38,0,1,0,21,6.84h-.21V9h-2.2Zm2.54.17V7.21A2,2,0,1,1,19,9.39Z"/><path class="c" d="M20.56,6.22h-.17A2.39,2.39,0,0,0,18,8.59h0v.18h2.55Zm-.35,2.19H18.38a2,2,0,0,1,1.83-1.83Z"/><rect class="c" x="12.06" y="14.19" width="4.87" height="0.35"/><rect class="c" x="12.06" y="15.04" width="4.87" height="0.35"/><rect class="c" x="12.06" y="15.89" width="4.87" height="0.35"/><rect class="c" x="12.06" y="16.75" width="4.87" height="0.35"/></svg>