<svg xmlns="http://www.w3.org/2000/svg" viewBox="0 0 36 34"><defs><style>.a{fill:#c35eb2;}.b{isolation:isolate;font-size:9px;font-family:BerlinSansFB-Reg, Berlin Sans FB;}.b,.c{fill:#fff;}</style></defs><title>mtf</title><rect class="a" width="36" height="34" rx="5"/><text class="b" transform="translate(9.53 29.34)">MTF</text><path class="c" d="M23,6.41a.33.33,0,0,0-.39-.18l-.78.2a.39.39,0,0,0-.21.17.39.39,0,0,0,0,.26,6.4,6.4,0,0,1-1.07-.14H20.2a1.05,1.05,0,0,0-.5-.9.81.81,0,0,0-.7-.19,1,1,0,0,0-1.35-.4,1,1,0,0,0-.4.4.87.87,0,0,0-.83.21A1.09,1.09,0,0,0,16,7a.4.4,0,0,0-.18.1.46.46,0,0,0-.06.65l.06.06a.7.7,0,0,0,.37.17v.09a.79.79,0,0,0,.06.22.51.51,0,0,0-.16.09.47.47,0,0,0-.14.33.62.62,0,0,0,.07.23S16,9,16,9a.43.43,0,0,0-.14.32.51.51,0,0,0,.17.34A3.8,3.8,0,0,0,15,12.14c0,1.55,1.6,2.24,3.18,2.24s3.19-.69,3.19-2.24a3.73,3.73,0,0,0-1-2.41,2.06,2.06,0,0,0,.4-.25L21,9.32a7.75,7.75,0,0,1,1-.41.3.3,0,0,0,.12.17.32.32,0,0,0,.2.08h.07L23.17,9a.31.31,0,0,0,.26-.28A9.06,9.06,0,0,0,23,6.41ZM16.57,7.9a.41.41,0,0,1,.19-.08h.15A.21.21,0,0,1,17,8c0,.09-.07.15-.22.17H16.7A.19.19,0,0,1,16.53,8,.13.13,0,0,1,16.57,7.9Zm1.56,3.2a.61.61,0,0,1-.63-.55A.58.58,0,0,1,18,10V9.76a.14.14,0,0,1,.27,0h0V10a.59.59,0,0,1,.5.55.13.13,0,1,1-.26,0,.38.38,0,0,0-.75,0,.34.34,0,0,0,.37.29.6.6,0,0,1,.64.56h0a.6.6,0,0,1-.5.54v.24a.13.13,0,0,1-.13.13h0a.13.13,0,0,1-.13-.13v-.24a.59.59,0,0,1-.5-.54.13.13,0,0,1,.26,0h0a.34.34,0,0,0,.37.29.3.3,0,1,0,.11-.59ZM16.07,7.56A.18.18,0,0,1,16,7.41a.17.17,0,0,1,0-.17h.1a1.61,1.61,0,0,0,.35.43h-.06A.42.42,0,0,1,16.07,7.56Zm.27,1a.35.35,0,0,1,.24-.08h.15a.28.28,0,0,1,.07.17c0,.09-.06.15-.18.17h-.15a.19.19,0,0,1-.18-.19.12.12,0,0,1,.05-.1Zm-.21.64a.4.4,0,0,1,.24-.07h.12a.23.23,0,0,1,.1.19c0,.09-.07.15-.22.17h-.15a.16.16,0,0,1-.14-.18h0a.15.15,0,0,1,.05-.14Zm4.62-.1-.27.18a2.22,2.22,0,0,1-.42.25h0L20,9.37l-.1-.11a1.46,1.46,0,0,1-.5-.95,1,1,0,0,0,.5.14.13.13,0,0,0,.1-.13.13.13,0,0,0-.13-.13A.79.79,0,0,1,19.32,8h0c-.07-.06-.14-.14-.21-.21s-.39-.41-.66-.4a6.1,6.1,0,0,0-.72.14.38.38,0,0,1-.33,0,.19.19,0,0,1-.12-.15c0-.06.06-.09.1-.11L17.7,7a2.52,2.52,0,0,1,1-.3,4.74,4.74,0,0,1,1.3.18h.18l.28,0a5.39,5.39,0,0,0,1.2.14A8.79,8.79,0,0,1,22,8.6a5.65,5.65,0,0,0-1.2.47Z"/><path class="c" d="M21.8,16.87a2.92,2.92,0,0,0-1.34-.22.46.46,0,0,0,.05-.2.52.52,0,0,0-.4-.52l-.36-.13a5.67,5.67,0,0,0-1.34-.37,3.36,3.36,0,0,0-2.29.51L16,16a7,7,0,0,1-1,.47.39.39,0,0,0-.11-.17.35.35,0,0,0-.26-.07l-.81.09a.29.29,0,0,0-.26.27,9,9,0,0,0,.36,2.3.35.35,0,0,0,.31.2h.08l.76-.17a.36.36,0,0,0,.22-.16.34.34,0,0,0,0-.2h0a4,4,0,0,1,1.64-.2h.24a4.75,4.75,0,0,0,1.8-.1l.45-.12a5.19,5.19,0,0,1,1.95-.28.52.52,0,1,0,.3-1Zm0,.54a.25.25,0,0,1-.29.16,5.88,5.88,0,0,0-2,.29l-.43.12a4.75,4.75,0,0,1-1.72.1h-.25a4.28,4.28,0,0,0-1.74.22h0a8.59,8.59,0,0,1-.22-1.51,6.84,6.84,0,0,0,1.06-.5h.09a3.1,3.1,0,0,1,2.14-.47,5.56,5.56,0,0,1,1.27.35,2.43,2.43,0,0,0,.38.13.28.28,0,0,1,.21.27.25.25,0,0,1-.21.23h-.22l-.3-.06A1.62,1.62,0,0,0,18,17a.12.12,0,0,0,0,.17h0a.13.13,0,0,0,.18,0h0a1.43,1.43,0,0,1,1.35-.2l.31.06a.76.76,0,0,0,.3,0h0a3.53,3.53,0,0,1,1.58.15.29.29,0,0,1,.14.32Z"/><rect class="c" x="16.8" y="9.63" width="2.67" height="3.59"/><path class="a" d="M16.91,11.46h.33a1,1,0,0,0,.49-.09A.67.67,0,0,0,18.1,11v-.14H16.78l.19-.29h1a.61.61,0,0,0-.12-.16.83.83,0,0,0-.42-.18H16.8l.2-.3h2.22l-.2.28h-.59a.71.71,0,0,1,.17.36h.66l-.19.29h-.4V11a1,1,0,0,1-.53.63,1.41,1.41,0,0,1-.57.14h0l1,1.25a2.11,2.11,0,0,0,.19.23.11.11,0,0,1,0,.11h-.47l-1-1.14L17,11.79h0v-.3Z"/></svg>