<svg xmlns="http://www.w3.org/2000/svg" xmlns:xlink="http://www.w3.org/1999/xlink" viewBox="0 0 36 34"><defs><style>.a{fill:url(#a);}.b,.c{isolation:isolate;}.c{font-size:9px;font-family:BerlinSansFB-Reg, Berlin Sans FB;}.c,.d{fill:#fff;}</style><radialGradient id="a" cx="413.3" cy="269.68" r="18.46" gradientTransform="matrix(0.94, 0, 0, -0.94, -372.31, 330.23)" gradientUnits="userSpaceOnUse"><stop offset="0" stop-color="#12aa8d"/><stop offset="1" stop-color="#12aa8d"/></radialGradient></defs><title>report</title><rect class="a" width="36" height="34" rx="5"/><g class="b"><text class="c" transform="translate(1.46 29.19)">REPORT</text></g><path class="d" d="M449.66,314.58h2.44l-.15,0s.06,0,.08,0l-.14-.06c.07,0,0,.05,0,0l0,0s-.1-.14,0,0,0,.05,0,.08l-.05-.15a1.29,1.29,0,0,1,0,.19c0-.05,0-.1,0-.16a3.38,3.38,0,0,1,0,.45v12.76a.53.53,0,0,1,0,.13c0-.05,0-.1,0-.15a1.16,1.16,0,0,1,0,.18l.05-.15,0,.07,0,0c0-.05,0-.06,0,0s-.06,0,.05,0l-.06,0,.15-.06-.09,0,.16,0H440.94l.16,0-.12,0,.14.06-.09-.05s.13.12,0,0l0,0,0,.06,0-.1.06.15a.74.74,0,0,1,0-.14.78.78,0,0,1,0,.16,2.94,2.94,0,0,1,0-.42V314.48a1,1,0,0,1,0,.16.57.57,0,0,1,0-.14l-.06.14,0-.1c.05-.09-.1.11,0,0l0,0-.06.05.09-.05-.15.05.1,0-.16,0h2.35a.6.6,0,0,0,0-1.19H441a1.18,1.18,0,0,0-1.12,1.22v12.9a1.38,1.38,0,0,0,.18.79,1.12,1.12,0,0,0,.92.52h11.06a.9.9,0,0,0,.57-.2,1.18,1.18,0,0,0,.42-.83,1.93,1.93,0,0,0,0-.34V314.58a1.32,1.32,0,0,0-.2-.75,1,1,0,0,0-.79-.44h-2.4a.59.59,0,1,0,0,1.18Z" transform="translate(-428 -308)"/><path class="d" d="M450.11,317.64h-7.27a.59.59,0,1,0,0,1.18h7.28a.59.59,0,0,0,.6-.59.58.58,0,0,0-.59-.59Z" transform="translate(-428 -308)"/><path class="d" d="M450.11,321h-7.27a.6.6,0,0,0,0,1.19h7.27a.6.6,0,1,0,0-1.19Z" transform="translate(-428 -308)"/><path class="d" d="M446.54,324.27h-3.7a.59.59,0,0,0-.62.56.59.59,0,0,0,.57.62h3.75a.59.59,0,1,0,0-1.18Z" transform="translate(-428 -308)"/><path class="d" d="M449.13,312.39h-5.26a1.15,1.15,0,0,0-1.14.83,1.86,1.86,0,0,0,0,.47v.84a1.12,1.12,0,0,0,.54,1,1.33,1.33,0,0,0,.73.16h5.15a1.11,1.11,0,0,0,1.13-1.12v-.43a2.3,2.3,0,0,0-.14-1.13,1.14,1.14,0,0,0-1-.58.59.59,0,0,0-.59.59.58.58,0,0,0,.59.59h.08l-.16,0,.13,0-.14-.06.09.05s-.13-.11,0,0,0,.06,0-.05a.47.47,0,0,0,.05.1l-.06-.15a.61.61,0,0,1,0,.13,1,1,0,0,0,0-.16,3.9,3.9,0,0,1,0,.59,3.85,3.85,0,0,1,0,.59.78.78,0,0,0,0-.16.5.5,0,0,1,0,.13l.06-.14-.05.09s.12-.13,0,0-.07,0,0,0l-.09.05.14-.06-.13,0,.16,0a3.75,3.75,0,0,1-.58,0h-4.17a5.77,5.77,0,0,1-.72,0l.16,0-.13,0,.14.06-.09-.05s.14.12,0,0,0-.06,0,0a.41.41,0,0,0-.05-.09l.06.14,0-.13c0,.06,0,.1,0,.16a5.76,5.76,0,0,1,0-.59,5.86,5.86,0,0,1,0-.59c0,.06,0,.1,0,.16l0-.13-.06.15.05-.1s-.12.14,0,.05.07,0,0,0a.26.26,0,0,0,.09-.05l-.14.06.13,0-.16,0a5.81,5.81,0,0,1,.59,0h4.8a.59.59,0,1,0,0-1.18Z" transform="translate(-428 -308)"/></svg>