<svg xmlns="http://www.w3.org/2000/svg" viewBox="0 0 36 34"><defs><style>.a{fill:#ffa20a;}.b{isolation:isolate;font-size:9px;font-family:BerlinSansFB-Reg, Berlin Sans FB;}.b,.c{fill:#fff;}</style></defs><title>RMD</title><rect class="a" width="36" height="34" rx="5"/><text class="b" transform="translate(9.21 29.34)">RDM</text><path class="c" d="M21.94,15.94h.19a.66.66,0,0,0,.28,0,.34.34,0,0,0,.2-.22v-.08h-.76l.11-.16h.61a.22.22,0,0,0-.07-.09.53.53,0,0,0-.24-.11h-.41c0-.06.07-.12.11-.17h1.26c0,.06-.07.11-.1.16h-.34a.3.3,0,0,1,.1.2h.36a1,1,0,0,1-.11.17H22.9v0a.5.5,0,0,1-.3.35.72.72,0,0,1-.32.08h0c.19.24.38.48.58.71A.64.64,0,0,0,23,17a.08.08,0,0,1,0,0h-.29l-.54-.64L22,16.12h0V16Z"/><path class="c" d="M23,13.14a.54.54,0,0,0-.45-.24.56.56,0,0,0-.46.24L20.84,15a2.08,2.08,0,0,0,.51,2.88H20.09V12.52H18.56v5.34H17.8v-4.2H16.28v4.2h-.77V14H14v3.82h-.76V14.31l2.09-2.09,1.15,1.14,3.24-3.24,1.14,1.14,2.48-2.47.9.89.47-3.29-3.3.47.9.89L20.85,9.2,19.71,8.06,16.47,11.3l-1.15-1.15-2.09,2.1V11h1.14v-.38H13.23v-.38H14V9.85h-.76V9.47h1.14V9.09H13.23V8.71H14V8.33h-.76V7.94h1.14V7.56H13.23V7.18H14V6.8h-.76V6.42h-.39V18.24H22.6a2.09,2.09,0,0,0,2.07-2.08A2,2,0,0,0,24.29,15Zm-7.7-2.45,1.15,1.15L19.71,8.6l1.14,1.14,2-2-.63-.62,2-.3-.29,2L23.3,8.2l-2.48,2.48-1.11-1.1-3.24,3.24-1.15-1.14-2.09,2.09v-1Zm3.62,2.21h.77v5h-.77ZM16.66,14h.76v3.82h-.76Zm-2.29.39h.76v3.43h-.76Zm8.22,3.43h0a1.7,1.7,0,0,1-1.7-1.7h0a1.78,1.78,0,0,1,.3-1l1.27-1.83a.18.18,0,0,1,.25,0l0,0L24,15.19a1.7,1.7,0,0,1-.43,2.37,1.73,1.73,0,0,1-1,.3Z"/></svg>