<svg xmlns="http://www.w3.org/2000/svg" viewBox="0 0 36 34"><defs><style>.a{fill:#00d489;}.b{isolation:isolate;font-size:9px;font-family:BerlinSansFB-Reg, Berlin Sans FB;}.b,.c{fill:#fff;}</style></defs><title>rms</title><rect class="a" width="36" height="34" rx="5"/><text class="b" transform="translate(9.98 29.34)">RMS</text><text class="b" transform="translate(9.98 29.34)">RMS</text><path class="c" d="M18.39,9.41A1.42,1.42,0,1,1,19.8,8V8A1.42,1.42,0,0,1,18.39,9.41Zm0-2.42a1,1,0,1,0,1,1A1,1,0,0,0,18.39,7Z"/><path class="c" d="M20.16,18.85H18.82a.2.2,0,0,1-.22-.18h0V15.41a.28.28,0,1,0-.54,0v3.24a.2.2,0,0,1-.2.2H16.51a.2.2,0,0,1-.2-.2h0V12.24l-.5.44a.17.17,0,0,1-.15.05l-3.22-.28a.2.2,0,0,1-.18-.22h0a.17.17,0,0,1,.05-.12l.54-.6a.24.24,0,0,1,.11-.06L15.3,11l1.05-1.14a.2.2,0,0,1,.15-.06h.87a.2.2,0,0,1,.17.09,1,1,0,0,0,.79.43,1,1,0,0,0,.78-.44.2.2,0,0,1,.17-.09h.87a.2.2,0,0,1,.15.06L21.36,11l2.34.42a.24.24,0,0,1,.11.06l.54.6a.19.19,0,0,1,0,.27h0a.27.27,0,0,1-.14.07l-3.21.3a.17.17,0,0,1-.15-.05l-.51-.44v6.41a.2.2,0,0,1-.2.2h0ZM19,18.45h1V11.79a.23.23,0,0,1,.33-.18l.78.68L23.82,12l-.23-.25-2.34-.41a.19.19,0,0,1-.11-.07l-1-1.12h-.67a1.4,1.4,0,0,1-.93.54h-.25a1.38,1.38,0,0,1-.93-.54H16.6l-1,1.12a.19.19,0,0,1-.11.07l-2.34.41-.23.25,2.71.25.78-.68a.22.22,0,0,1,.22,0,.19.19,0,0,1,.11.18v6.66h1v-3a.74.74,0,0,1,.5-.7h.37a.76.76,0,0,1,.49.7Z"/><path class="c" d="M12.94,10.49A2.36,2.36,0,1,1,15.3,8.13a2.36,2.36,0,0,1-2.36,2.36Zm0-4.31a2,2,0,1,0,2,2,2,2,0,0,0-1.9-2Z"/><path class="c" d="M23.73,10.49a2.36,2.36,0,1,1,2.35-2.37h0a2.35,2.35,0,0,1-2.34,2.36Zm0-4.31a2,2,0,1,0,1.95,2.05V8.18A2,2,0,0,0,23.73,6.18Z"/><path class="c" d="M23.73,8.6a.2.2,0,0,1-.21-.19h0V7.05a.2.2,0,0,1,.2-.2h0a.2.2,0,0,1,.2.2h0V8.4a.2.2,0,0,1-.2.2Z"/><path class="c" d="M23.73,9.41a.2.2,0,0,1-.21-.19h0a.2.2,0,0,1,.06-.14.21.21,0,0,1,.29,0,.19.19,0,0,1,0,.27h0a.18.18,0,0,1-.07.05Z"/><path class="c" d="M12.67,8.87a.2.2,0,0,1-.14-.06L12,8.28A.21.21,0,0,1,12,8a.2.2,0,0,1,.27,0l.42.41,1.2-1a.21.21,0,0,1,.29,0,.19.19,0,0,1,0,.28L12.8,8.83A.2.2,0,0,1,12.67,8.87Z"/></svg>