<svg xmlns="http://www.w3.org/2000/svg" viewBox="0 0 36 34"><defs><style>.a{fill:#ff35a1;}.b{isolation:isolate;font-size:8.5px;font-family:BerlinSansFB-Reg, Berlin Sans FB;}.b,.c{fill:#fff;}</style></defs><title>trading</title><rect class="a" width="36" height="34" rx="5"/><text class="b" transform="translate(0.64 29.55)">TRADING</text><path class="c" d="M23.1,8.1a.79.79,0,0,0-.79.79h0a.81.81,0,0,0,0,.22L20,11.24a.81.81,0,0,0-.31-.06.74.74,0,0,0-.48.17L17,10.23h0a.79.79,0,0,0-.79-.79h0a.76.76,0,0,0-.77.73v0a.38.38,0,0,0,0,.15l-2.3,1.72a.65.65,0,0,0-.38-.09.79.79,0,1,0,.79.79h0a.38.38,0,0,0,0-.15l2.31-1.72a.68.68,0,0,0,.37.09.8.8,0,0,0,.49-.18L18.89,12h0a.79.79,0,1,0,1.58,0,.81.81,0,0,0,0-.22L22.81,9.6a.79.79,0,0,0,1-.44.72.72,0,0,0,.06-.29A.81.81,0,0,0,23.1,8.1Z"/><path class="c" d="M27.09,16.65v-11H9.52v11H18V18H16.4a.35.35,0,0,0-.33.33.33.33,0,0,0,.33.33h3.8a.33.33,0,0,0,0-.66H18.62V16.65ZM10.18,6.32H26.44V16H10.18Z"/></svg>